<svg xmlns="http://www.w3.org/2000/svg" viewBox="0 0 333 321.02"><defs><style>.cls-1{fill:#44c2f3;}</style></defs><g id="Layer_2" data-name="Layer 2"><g id="Layer_1-2" data-name="Layer 1"><line class="cls-1" x1="26.05" y1="185.97" x2="25" y2="187.02"/><path class="cls-1" d="M30,182.07a16.41,16.41,0,0,1-3.9,3.9"/><path class="cls-1" d="M333,172a17,17,0,0,1-15.91,17c-.36,0-.72,0-1.09,0a16.82,16.82,0,0,1-8-2,17.1,17.1,0,0,1-7-7c-.18-.33-.35-.68-.5-1l-.8-.27L166.5,45.52,77,136V290H255.5V255.18c-.19-1.37-.4-3.14-.5-5.16,0-.74-.05-1.35-.06-1.74h0A38.51,38.51,0,0,1,238.31,233,53,53,0,0,1,254,189.38V219a21.49,21.49,0,0,0,35,0V189.9a52,52,0,0,1,16.5,38.37q0,1.78-.12,3.54a38.62,38.62,0,0,1-7,9.23h0c-2.93,2.87-6.25,6.83-10,8.76A11.81,11.81,0,0,0,288,253l-.07,4.6v0L287.28,298v0l-.07,4.47v0l-.09,6.06v.05A18.05,18.05,0,0,1,270,321H58.42A16,16,0,0,1,48,306V164L26.05,186A16.5,16.5,0,0,1,3,163l4-4L167,0l160,159,2,2A16.89,16.89,0,0,1,333,172Z"/><rect class="cls-1" x="132" y="152.02" width="29" height="29"/><rect class="cls-1" x="171" y="151.02" width="29" height="29"/><rect class="cls-1" x="171" y="190.02" width="29" height="29"/><rect class="cls-1" x="132" y="190.02" width="29" height="29"/></g></g></svg>