<?xml version="1.0" encoding="UTF-8"?>
<svg width="64px" height="64px" viewBox="0 0 64 64" version="1.1" xmlns="http://www.w3.org/2000/svg" xmlns:xlink="http://www.w3.org/1999/xlink">
    <!-- Generator: Sketch 48.1 (47250) - http://www.bohemiancoding.com/sketch -->
    <title>female pro</title>
    <desc>Created with Sketch.</desc>
    <defs>
        <polyline id="path-1" points="0.0388636364 0.496979592 56.7324886 0.496979592 56.7324886 64 0.0388636364 64"></polyline>
    </defs>
    <g id="Cleaning" stroke="none" stroke-width="1" fill="none" fill-rule="evenodd" transform="translate(-1048.000000, -795.000000)">
        <g id="Pro-Icon" transform="translate(1048.000000, 795.000000)">
            <path d="M57.9557277,12.5019265 C57.9557277,9.32487443 60.5311245,6.74947757 63.7081766,6.74947757 L63.7081766,6.11656754 C60.5311245,6.11656754 57.9557277,3.54117068 57.9557277,0.36411861 L57.3228176,0.36411861 C57.3228176,3.54117068 54.7474208,6.11656754 51.5703687,6.11656754 L51.5703687,6.74947757 C54.7474208,6.74947757 57.3228176,9.32487443 57.3228176,12.5019265 L57.9557277,12.5019265 Z" id="Fill-3" fill="#FFB600"></path>
            <g id="pro-female" transform="translate(4.000000, 0.000000)">
                <g id="Group-4">
                    <mask id="mask-2" fill="white">
                        <use xlink:href="#path-1"></use>
                    </mask>
                    <g id="Clip-2"></g>
                    <path d="M45.6518182,41.2538776 L37.156875,41.2538776 C33.7142045,45.5164082 31.4627045,45.7959184 28.4183864,45.7959184 L28.3756364,45.7959184 C25.3041136,45.7959184 23.0409545,45.5164082 19.5950455,41.2538776 L11.0988068,41.2538776 C4.96871591,41.2538776 0,46.2641633 0,52.4427755 L0.000647727273,52.4427755 L0,64 L56.7324886,64 L56.7324886,51.8262857 C56.4138068,45.9337143 51.5759318,41.2538776 45.6518182,41.2538776" id="Fill-1" fill="#00CDED" mask="url(#mask-2)"></path>
                    <path d="M28.3756364,45.7959184 C25.3041136,45.7959184 23.0409545,45.5164082 19.5950455,41.2538776 L11.0968636,41.2538776 C4.97001136,41.2538776 0.000647727273,46.2641633 0.000647727273,52.4427755 L0.000647727273,64 L28.3762841,64 L28.3762841,45.7959184 L28.3756364,45.7959184" id="Fill-3" fill="#FFFFFF" opacity="0.3" mask="url(#mask-2)"></path>
                </g>
                <path d="M28.0003196,44.9999996 C31.3928589,44.9999996 33.7634044,45.0231809 39.9440035,34.4814429 C42.0258895,30.9314702 41.9999922,25.6486885 41.9999922,20.9106696 L41.9999922,19.8971276 L28.8309264,12 L21.4059962,15.0882766 L14.0000152,20.9106696 C14.0000152,25.6486885 13.974118,30.9314702 16.0572673,34.4814429 C22.236603,45.0231809 24.6084119,44.9999996 28.0003196,44.9999996" id="Fill-5" fill="#E6C1A9"></path>
                <path d="M42,27.5152102 C42,28.3334255 42.6715249,29 43.4990211,29 C44.3284751,29 45,28.3334255 45,27.5152102 L45,23.4815634 C45,22.6633481 44.3284751,22 43.4990211,22 C42.6715249,22 42,22.6633481 42,23.4815634 L42,27.5152102" id="Fill-6" fill="#E6C1A9"></path>
                <path d="M27,12 L13.4096223,19.9347881 L13.4096223,20.9468095 C13.4096223,21.6193472 13.4096223,22.3053872 13.4133012,22.993356 L13.4096223,22.993356 C12.6303139,22.993356 12,23.6543204 12,24.4695956 L12,28.4887481 C12,29.3059521 12.6303139,29.9682025 13.4096223,29.9682025 C13.576398,29.9682025 13.7333633,29.9321967 13.8823578,29.876902 C14.1742152,31.58075 14.644498,33.1624353 15.4066383,34.4972234 C21.4050441,45.0231464 23.7074068,44.9999998 27,44.9999998 L27,12" id="Fill-7" fill="#F8D2BB"></path>
                <path d="M33,33 C33,35.7621861 30.9850052,38 28.5,38 C26.0149948,38 24,35.7621861 24,33 L33,33" id="Fill-8" fill="#FFFFFE"></path>
                <path d="M31,15 C31.2498642,17.162665 32.027823,19.2467996 33.333273,20.9151852 C35.4142676,23.56905 38.3275394,24.5067951 41,23.7430487 L41,20.0806075" id="Fill-9" fill="#1C1D1A"></path>
                <polygon id="Fill-10" fill="#1C1D1A" points="40 22 42 22 42 25 40 25"></polygon>
                <path d="M35,26.9987038 C35,27.551523 34.5520259,28 34.0003241,28 C33.4460292,28 33,27.551523 33,26.9987038 C33,26.4471808 33.4460292,26 34.0003241,26 C34.5520259,26 35,26.4471808 35,26.9987038" id="Fill-11" fill="#1C1D1A"></path>
                <path d="M34,14 L34,14 C34,18.818686 30.0583847,23 25.1938515,23 L14,23 L14,19.9558447 L34,14" id="Fill-12" fill="#1C1D1A"></path>
                <path d="M42,20 L32.2979991,18.0630753 L14,20 C14,11.7162967 20.2671389,5 28.0003158,5 C35.7315978,5 42,11.7162967 42,20" id="Fill-13" fill="#1C1D1A"></path>
                <polygon id="Fill-14" fill="#1C1D1A" points="14 22 16 22 16 25 14 25"></polygon>
                <path d="M22,26.9987038 C22,27.551523 21.5528877,28 21.0006489,28 C20.4451655,28 20,27.551523 20,26.9987038 C20,26.4471808 20.4451655,26 21.0006489,26 C21.5528877,26 22,26.4471808 22,26.9987038" id="Fill-15" fill="#1C1D1A"></path>
                <path d="M41,5.99964402 C41,9.31237022 38.3136347,12 35,12 C31.6863653,12 29,9.31237022 29,5.99964402 C29,2.68620587 31.6863653,0 35,0 C38.3136347,0 41,2.68620587 41,5.99964402" id="Fill-16" fill="#1C1D1A"></path>
                <polygon id="Fill-23-Copy" fill="#FFFFFF" points="38.0005484 59 47 56.9077978 47 52 38 54.0922022"></polygon>
            </g>
        </g>
    </g>
</svg>